<svg version="1.1" xmlns="http://www.w3.org/2000/svg" viewBox="0 0 43.17 42">
  <defs>
    <style>
      .cls-1 {
        fill: none;
        stroke: currentColor;
        stroke-miterlimit: 10;
        stroke-width: 2px;
      }
    </style>
  </defs>
  <rect class="cls-1" x="11.33" y="14" width="20.67" height="13" />
  <line class="cls-1" x1="28.76" y1="5" x2="33.5" y2="5" />
  <line class="cls-1" x1="22.28" y1="5" x2="26.75" y2="5" />
  <path class="cls-1" d="M11.67,21h-2.5c-4.42,0-8-3.58-8-8h0c0-4.42,3.58-8,8-8h10.83" />
  <path class="cls-1" d="M32.04,21h2.12c4.42,0,8,3.58,8,8h0c0,4.42-3.58,8-8,8H9" />
  <line class="cls-1" x1="15.17" y1="18.5" x2="22.17" y2="18.5" />
  <line class="cls-1" x1="15.17" y1="22.5" x2="26.17" y2="22.5" />
  <circle class="cls-1" cx="38" cy="5" r="4" />
  <circle class="cls-1" cx="5" cy="37" r="4" />
</svg>
