<svg version="1.1" xmlns="http://www.w3.org/2000/svg" viewBox="0 0 28.13 35.85">
  <path
    d="M12.81,21.8c-.42-.33-.62-.77-.62-1.28V4.31C12.19,1.93,10.26,0,7.88,0S3.57,1.93,3.57,4.31V20.52c0,.5-.24,.98-.65,1.31C.96,23.43-.11,25.78,0,28.33c.18,3.95,3.42,7.22,7.37,7.48,.18,0,.33,.03,.5,.03,2.02,0,3.92-.74,5.38-2.14,1.57-1.48,2.49-3.56,2.49-5.73,0-2.47-1.07-4.69-2.94-6.18h0Zm-.56,10.78c-1.31,1.22-3,1.84-4.78,1.72-3.21-.21-5.82-2.85-5.97-6.06-.09-2.05,.77-3.98,2.35-5.26,.77-.62,1.19-1.51,1.19-2.47V4.31c0-1.54,1.28-2.82,2.82-2.82s2.82,1.28,2.82,2.82V20.52c0,.92,.45,1.81,1.19,2.41,1.51,1.22,2.38,3.03,2.38,4.96,.03,1.81-.68,3.47-1.99,4.69h0Z" />
  <path
    d="M10.23,23.79c-.74-.42-1.16-1.22-1.16-2.08V12.65c0-.65-.53-1.19-1.19-1.19s-1.19,.53-1.19,1.19v9.12c0,.83-.45,1.63-1.19,2.05-1.48,.86-2.47,2.47-2.38,4.34,.12,2.44,2.11,4.43,4.51,4.54,2.73,.12,4.99-2.05,4.99-4.75,0-1.81-.98-3.36-2.41-4.16h0ZM27.39,9.15c.42,0,.74-.33,.74-.74s-.33-.74-.74-.74c-1.46,0-2.67-1.19-2.67-2.67,0-.42-.33-.74-.74-.74s-.74,.33-.74,.74c0,2.32,1.87,4.16,4.16,4.16h0Z" />
  <path
    d="M27.39,11.08c-3.36,0-6.06-2.73-6.06-6.06,0-.42-.33-.74-.74-.74s-.74,.33-.74,.74c0,4.16,3.39,7.54,7.54,7.54,.42,0,.74-.33,.74-.74s-.33-.74-.74-.74h0Z" />
  <path
    d="M27.39,14.49c-5.23,0-9.47-4.25-9.47-9.47,0-.42-.33-.74-.74-.74s-.74,.33-.74,.74c0,6.03,4.93,10.96,10.96,10.96,.42,0,.74-.33,.74-.74s-.33-.74-.74-.74h0Z" />
</svg>
