<svg version="1.1" xmlns="http://www.w3.org/2000/svg" viewBox="0 0 1024 1024">
  <path
    d="M819.2 832c89.6 0 160-76.8 134.4-160l-140.8-512c-12.8-57.6-70.4-96-128-96H339.2c-64 0-121.6 38.4-134.4 96l-140.8 512c-19.2 83.2 51.2 160 140.8 160H384v64H160c-19.2 0-32 12.8-32 32s12.8 32 32 32h704c19.2 0 32-12.8 32-32s-12.8-32-32-32H640v-64h179.2zM403.2 576h217.6l19.2 192H384l19.2-192z m192-256l19.2 192H409.6l19.2-192h166.4zM435.2 256L448 128h128l12.8 128H435.2z m448 480c-12.8 19.2-38.4 32-64 32H704v-6.4L684.8 576h179.2l32 115.2c6.4 19.2-6.4 38.4-12.8 44.8zM844.8 512h-166.4l-19.2-192h134.4l51.2 192z m-89.6-332.8l19.2 76.8h-121.6L640 128h38.4c38.4 0 70.4 19.2 76.8 51.2zM339.2 128H384l-12.8 128H249.6l19.2-76.8c6.4-32 38.4-51.2 70.4-51.2zM230.4 320h134.4l-19.2 192H179.2l51.2-192z m-89.6 416c-6.4-6.4-19.2-25.6-12.8-51.2L160 576h179.2L320 761.6v6.4H204.8c-25.6 0-51.2-12.8-64-32z">
  </path>
</svg>
