<svg version="1.1" xmlns="http://www.w3.org/2000/svg" viewBox="0 0 1024 1024">
  <path
    d="M287.43168 234.365952l138.596352 48.551936c13.034496 4.574208 26.836992-3.54816 30.869504-18.066432l0.052224-0.18432c4.064256-14.518272-3.132416-29.969408-16.165888-34.543616L302.160896 181.56544c-12.955648-4.548608-26.784768 3.574784-30.84288 18.1248l-0.052224 0.125952c-4.064256 14.577664 3.18464 29.996032 16.165888 34.54976zM307.351552 261.813248c-11.181056-3.905536-23.077888 3.058688-26.578944 15.629312l-0.047104 0.132096c-3.495936 12.491776 2.721792 25.831424 13.929472 29.763584l88.370176 30.948352c11.181056 3.879936 23.084032-3.110912 26.55232-15.602688l0.052224-0.132096c3.521536-12.592128-2.700288-25.858048-13.907968-29.790208l-88.370176-30.948352zM906.233856 471.533568l-88.244224-30.948352c-11.20768-3.905536-23.15776 3.058688-26.652672 15.68256-3.521536 12.545024 2.721792 25.910272 13.955072 29.842432l88.244224 30.896128c11.259904 3.93216 23.18336-3.058688 26.704896-15.629312 3.52256-12.565504-2.725888-25.9584-14.007296-29.843456zM951.343104 408.895488l-138.49088-48.504832c-13.034496-4.574208-26.889216 3.54816-30.948352 18.14528-4.064256 14.524416 3.158016 30.10048 16.192512 34.649088l138.496 48.504832c13.002752 4.548608 26.884096-3.595264 30.943232-18.14528 4.09088-14.603264-3.18464-30.127104-16.192512-34.649088z">
  </path>
  <path
    d="M789.152768 895.834112H679.778304l74.752-660.547584 121.3184 42.492928-14.266368 51.099648c-5.011456 17.967104 3.91168 37.039104 19.924992 42.640384 16.013312 5.633024 33.08032-4.369408 38.091776-22.336512l23.593984-84.46464c5.016576-17.913856-3.93216-36.985856-19.946496-42.592256a25.53344 25.53344 0 0 0-6.627328-1.411072L418.80576 46.4128c-1.900544-1.205248-3.958784-2.284544-6.142976-3.085312-16.039936-5.60128-33.106944 4.374528-38.1184 22.341632l-23.593984 84.46464c-5.016576 17.913856 3.93216 37.039104 19.946496 42.640384 16.013312 5.579776 33.053696-4.396032 38.065152-22.309888l14.291968-51.178496 121.29792 42.487808-343.51104 734.060544h-108.42112c-19.330048 0-34.95424 18.11968-34.95424 40.434688 0 22.336512 15.624192 40.481792 34.95424 40.481792h696.532992c19.303424 0 34.927616-18.14528 34.927616-40.481792 0-22.315008-15.624192-40.434688-34.927616-40.434688zM645.33504 724.69504L505.91744 531.06688l155.152384 54.310912L645.33504 724.69504z m26.089472-230.335488L580.12672 335.9232l99.267584 34.74944c1.952768 0.720896 3.93216 1.079296 5.859328 1.258496l-13.82912 122.428416zM608.990208 172.105728c1.442816-3.085312 2.23744-6.295552 2.774016-9.585664l94.928896 33.211392c-1.210368 3.085312-2.158592 6.243328-2.547712 9.691136l-12.081152 106.463232-127.362048-44.598272 44.288-95.181824z m-83.769344 179.956736l88.475648 153.478144-137.468928-48.141312 48.99328-105.336832z m-85.338112 183.474176l125.435904 174.150656-177.534976-62.181376 52.099072-111.96928z m-80.631808 173.249536l183.989248 184.810496-273.106944 0.410624 89.117696-185.22112z m265.316352 185.353216l-153.63072-154.225664 166.095872 58.169344-11.075584 97.75104h-0.026624c-0.462848-0.589824-0.846848-1.210368-1.362944-1.69472z">
  </path>
</svg>
