<svg xmlns="http://www.w3.org/2000/svg" xmlns:xlink="http://www.w3.org/1999/xlink" viewBox="0 0 960 960">
  <path fill="#139FFF"
    d="M426.52,192.37H114.83a465.2,465.2,0,0,0-68.57,119.9H307.57V420H19A458.05,458.05,0,0,0,19,540H307.57V647.72H46.26C113.65,821.58,282.33,945,480,945a462.87,462.87,0,0,0,244.62-69.6H426.52ZM941,540a455.76,455.76,0,0,0,0-120H652.49V312.27H913.72C846.41,138.38,677.69,15,480,15A463.37,463.37,0,0,0,235.3,84.62h299v683H845.21a463.21,463.21,0,0,0,68.51-119.91H652.49V540Z" />
</svg>
